<svg width="26" height="30" viewBox="0 0 26 30" fill="none" xmlns="http://www.w3.org/2000/svg">
<path d="M21.3521 23.018C21.1903 22.6035 20.7313 22.402 20.3268 22.5678C19.9225 22.7336 19.7258 23.2038 19.8875 23.6183L20.9363 26.3046L17.4639 22.7467C17.1559 22.4311 16.6566 22.4311 16.3485 22.7467C16.0405 23.0622 16.0405 23.574 16.3485 23.8896L21.4513 29.118C22.3003 29.988 23.7033 29.0402 23.2573 27.8978L21.3521 23.018Z" fill="currentColor"/>
<path d="M10.7607 6.85221C10.5695 6.45331 10.0831 6.2813 9.67431 6.46791C0.98537 10.436 -0.38288 17.7169 0.0785952 20.988C0.140202 21.4243 0.55241 21.7293 0.999424 21.6692C1.44652 21.6091 1.75904 21.2067 1.69744 20.7704C1.31791 18.0801 2.42519 11.5394 10.3669 7.91253C10.7756 7.72592 10.9519 7.25119 10.7607 6.85221Z" fill="currentColor"/>
<path d="M18.3693 6.39365C17.6338 6.38213 16.8146 6.46416 15.971 6.61712C14.2857 6.92262 12.4361 7.52315 10.8568 8.30489C9.31291 9.06908 7.88304 10.0766 7.21623 11.2711C7.01538 11.6309 6.79215 12.2075 7.09751 12.7507C7.40255 13.2932 7.99569 13.378 8.32366 13.3863C9.05677 13.4047 10.0443 13.0927 10.9512 12.6637C11.8825 12.2231 12.8676 11.5933 13.5925 10.8527C14.176 10.2567 14.7126 9.4579 14.7225 8.55469C15.2404 8.41099 15.7556 8.29193 16.2539 8.20161C17.0245 8.06194 17.7376 7.99392 18.3444 8.00342C18.9629 8.01324 19.4146 8.103 19.6999 8.23405C19.9642 8.35545 20.0114 8.47016 20.0262 8.55058C20.0505 8.68341 20.0295 9.0017 19.6873 9.58308C19.2562 10.3154 18.7643 10.924 18.2415 11.4277C17.6728 11.3391 17.0908 11.3046 16.5118 11.332C14.8545 11.4105 13.1667 12.0025 11.9196 13.3635C11.2701 14.072 11.7102 15.2385 12.7094 15.2688C14.1726 15.3131 16.58 14.8682 18.6998 13.1631C19.3051 13.3181 19.8764 13.5456 20.3766 13.8276C21.4884 14.4544 21.7283 15.1461 21.6315 15.6357C21.5749 15.9219 21.3842 16.2724 20.9882 16.6329C20.6545 16.5445 20.3119 16.4763 19.9636 16.4311C16.4171 15.9709 14.6858 16.6028 13.6805 17.4873C13.0726 18.022 13.1894 19.0294 13.9676 19.3685C15.076 19.8515 17.1324 20.1663 19.7519 19.1682C20.3195 18.952 20.8322 18.6999 21.2793 18.4159C22.382 18.843 23.2487 19.5211 23.6798 20.178C23.9827 20.6396 24.0057 20.9791 23.9318 21.1928C23.8597 21.4009 23.6104 21.736 22.813 21.9973C20.0379 22.9067 16.3997 22.5308 14.9267 22.2184C14.4949 22.1268 14.0712 22.4052 13.9803 22.8402C13.8894 23.2754 14.1657 23.7022 14.5975 23.7939C16.1821 24.1299 20.1438 24.565 23.3071 23.5284C24.3653 23.1817 25.1419 22.5857 25.4405 21.723C25.7371 20.866 25.4754 19.995 25.0126 19.29C24.4923 18.4972 23.6375 17.7745 22.5977 17.2461C22.9015 16.8473 23.107 16.4138 23.1986 15.9503C23.4866 14.4941 22.5797 13.2248 21.1568 12.4226C20.7978 12.2201 20.4121 12.0413 20.0075 11.8897C20.3823 11.4496 20.7368 10.9563 21.0618 10.4043C21.489 9.67839 21.7235 8.94672 21.5975 8.25836C21.4618 7.51768 20.9527 7.04007 20.3627 6.7691C19.7937 6.50772 19.0932 6.40508 18.3693 6.39365ZM15.6843 18.1699C16.2758 17.9687 17.148 17.8342 18.4618 17.9055C17.3324 18.2329 16.3917 18.26 15.6843 18.1699ZM15.8518 13.0182C15.3371 13.2406 14.8332 13.3949 14.3647 13.4966C14.8265 13.2633 15.3279 13.1061 15.8518 13.0182ZM12.9078 9.1582C12.8031 9.32894 12.6556 9.51715 12.4549 9.72211C11.8999 10.289 11.0888 10.8199 10.2721 11.2063C9.71614 11.4693 9.2164 11.6377 8.83898 11.7191C9.35342 11.0639 10.3049 10.3719 11.5614 9.74996C11.9904 9.5376 12.443 9.3394 12.9078 9.1582Z" fill="currentColor"/>
<path d="M11.8063 0.591001C11.2142 0.137925 10.422 -0.201738 9.58684 0.138077C8.73159 0.486086 8.42335 1.30119 8.35441 2.04703C8.28579 2.78961 8.42405 3.6563 8.64004 4.49923C9.07619 6.20146 9.90442 8.08458 10.5296 9.29818C10.7309 9.68889 11.2055 9.8396 11.5896 9.6349C11.9736 9.43012 12.1218 8.94732 11.9205 8.55668C11.3254 7.40155 10.5544 5.63743 10.1595 4.0963C9.95993 3.3175 9.87459 2.66345 9.91777 2.19655C9.96064 1.73298 10.0995 1.64987 10.17 1.62117C10.2607 1.58427 10.4593 1.55918 10.8622 1.86756C11.2585 2.17084 11.701 2.69136 12.1539 3.36862C13.0523 4.712 13.8584 6.46742 14.3232 7.6771C14.4811 8.08794 14.9364 8.2908 15.3402 8.13027C15.7441 7.96973 15.9436 7.5065 15.7858 7.09566C15.2967 5.82248 14.4405 3.94782 13.4523 2.47016C12.9619 1.73691 12.4049 1.04916 11.8063 0.591001Z" fill="currentColor"/>
</svg>
